<svg xmlns="http://www.w3.org/2000/svg" viewBox="0 0 1600 900" preserveAspectRatio="xMidYMid slice">
  <defs>
    <linearGradient id="sky" x1="0" y1="0" x2="0" y2="1">
      <stop offset="0" stop-color="#0b1e3c" />
      <stop offset="0.4" stop-color="#1f3c74" />
      <stop offset="1" stop-color="#3a5ba9" />
    </linearGradient>
    <radialGradient id="sun" cx="0.75" cy="0.2" r="0.35">
      <stop offset="0" stop-color="#ffd08a" stop-opacity="0.95" />
      <stop offset="1" stop-color="#ff6b6b" stop-opacity="0" />
    </radialGradient>
    <linearGradient id="mountainFar" x1="0" y1="0" x2="0" y2="1">
      <stop offset="0" stop-color="#314e7c" />
      <stop offset="1" stop-color="#223354" />
    </linearGradient>
    <linearGradient id="mountainMid" x1="0" y1="0" x2="0.5" y2="1">
      <stop offset="0" stop-color="#2d3e68" />
      <stop offset="1" stop-color="#1e2a45" />
    </linearGradient>
    <linearGradient id="mountainNear" x1="0" y1="0" x2="0.4" y2="1">
      <stop offset="0" stop-color="#1f2a40" />
      <stop offset="1" stop-color="#0d1526" />
    </linearGradient>
    <linearGradient id="water" x1="0" y1="0" x2="1" y2="1">
      <stop offset="0" stop-color="#2b6cb0" stop-opacity="0.85" />
      <stop offset="1" stop-color="#1c4674" stop-opacity="0.9" />
    </linearGradient>
    <filter id="grain" x="-20%" y="-20%" width="140%" height="140%">
      <feTurbulence type="fractalNoise" baseFrequency="1.1" numOctaves="3" seed="4" />
      <feColorMatrix type="matrix" values="0 0 0 0 0.6  0 0 0 0 0.65  0 0 0 0 0.75  0 0 0 0.12 0" />
      <feBlend mode="soft-light" in2="SourceGraphic" />
    </filter>
  </defs>
  <rect width="1600" height="900" fill="url(#sky)" />
  <rect width="1600" height="900" fill="url(#sun)" />
  <g fill="none" stroke="rgba(255,255,255,0.35)" stroke-width="1.5" opacity="0.3">
    <path d="M120 220 Q260 180 420 200 T720 210 T1100 190 T1500 210" />
    <path d="M40 320 Q260 260 440 280 T820 300 T1200 280 T1600 320" />
  </g>
  <g opacity="0.4">
    <path d="M0 480 L220 300 L460 470 L640 340 L900 500 L1160 360 L1400 460 L1600 320 L1600 900 L0 900 Z" fill="url(#mountainFar)" />
  </g>
  <g opacity="0.6">
    <path d="M0 560 L200 380 L380 540 L580 360 L760 520 L940 360 L1180 520 L1420 420 L1600 520 L1600 900 L0 900 Z" fill="url(#mountainMid)" />
  </g>
  <g opacity="0.8">
    <path d="M0 660 L160 480 L340 650 L520 470 L720 640 L920 470 L1100 640 L1320 520 L1600 660 L1600 900 L0 900 Z" fill="url(#mountainNear)" />
  </g>
  <rect y="640" width="1600" height="260" fill="url(#water)" opacity="0.8" />
  <g opacity="0.65">
    <ellipse cx="200" cy="720" rx="280" ry="60" fill="rgba(255,255,255,0.08)" />
    <ellipse cx="780" cy="760" rx="320" ry="65" fill="rgba(255,255,255,0.08)" />
    <ellipse cx="1350" cy="710" rx="260" ry="55" fill="rgba(255,255,255,0.08)" />
  </g>
  <g transform="translate(960 220) scale(1.1)">
    <path d="M0 40 L-60 48 L-64 44 L-8 30 L-60 32 L-64 24 L-6 16 L-46 6 Q-20 -6 12 0 L84 14 Q108 22 120 38 L162 90 L116 80 L92 86 L70 74 L40 74 Z" fill="#f8fafc" />
    <path d="M-12 18 L-52 6" stroke="#cbd5f5" stroke-width="6" stroke-linecap="round" />
    <path d="M56 70 L116 88" stroke="#cbd5f5" stroke-width="10" stroke-linecap="round" />
  </g>
  <rect width="1600" height="900" fill="transparent" filter="url(#grain)" />
</svg>
